<svg width="512" height="512" viewBox="0 0 512 512" fill="none" xmlns="http://www.w3.org/2000/svg">
<path d="M40 416H472C478.292 415.993 484.331 413.519 488.819 409.108C493.306 404.697 495.885 398.702 496 392.411C496.223 378.987 484.881 368 471.454 368H369.254L430.889 295.158C435.723 289.435 440.164 283.39 444.182 277.067C444.606 276.55 453.408 261.033 456.642 253.491L463.91 236.529C469.405 223.642 470.553 209.315 467.18 195.717L459.3 164.2L469.474 167.591C470.883 168.061 472.396 168.129 473.842 167.788C475.288 167.447 476.61 166.709 477.661 165.659L485.661 157.659C486.403 156.916 486.992 156.033 487.393 155.062C487.795 154.091 488.001 153.051 488 152V128C488 126.514 487.587 125.058 486.805 123.794C486.024 122.53 484.907 121.509 483.578 120.844L468.739 113.425L450.414 95.1C448.163 92.849 445.491 91.0634 442.55 89.8452C439.609 88.627 436.456 88 433.273 88H432.247C428.843 87.9992 425.477 88.7169 422.369 90.1061C419.261 91.4954 416.482 93.5249 414.212 96.062C407.241 96.4068 400.548 98.9057 395.056 103.214C390.094 107.209 386.38 112.542 384.356 118.582L376.41 141.47C375.812 143.265 375.869 145.213 376.572 146.97L384 165.541V184C384 186.122 384.843 188.157 386.343 189.657C387.843 191.157 389.878 192 392 192H408V201.062L400.195 202.177L371.077 206.336C363.562 207.41 356.686 211.158 351.712 216.893C346.738 222.628 344 229.965 344 237.556V269.784L326.412 299.1L247.748 220.436C243.389 216.076 238.132 212.719 232.343 210.596C226.555 208.474 220.373 207.638 214.229 208.146C208.084 208.655 202.125 210.496 196.764 213.541C191.403 216.586 186.77 220.762 183.186 225.779L114.342 322.159L92.716 336.575L62.06 344.239C60.3291 344.672 58.7925 345.67 57.6945 347.077C56.5965 348.483 56 350.216 56 352V368H40.546C27.119 368 15.777 378.987 16 392.411C16.1152 398.702 18.6936 404.697 23.1813 409.108C27.6689 413.519 33.7076 415.993 40 416V416ZM408 113.88V124.686L402.025 118.711C403.64 116.683 405.679 115.034 408 113.88V113.88ZM400 176V164C400 162.982 399.806 161.974 399.428 161.029L392.517 143.75L395.496 134.81L407.996 147.31V176H400ZM402.927 237.277L407.761 217.94L407.806 217.754L407.922 217.235L417.132 215.919C419.038 215.647 420.782 214.696 422.044 213.241C423.305 211.786 424 209.926 424 208V112.247C424.002 110.06 424.872 107.964 426.418 106.418C427.964 104.872 430.061 104.002 432.247 104H433.273C434.356 103.997 435.428 104.209 436.428 104.623C437.428 105.037 438.337 105.645 439.1 106.413L458.343 125.657C458.951 126.266 459.653 126.772 460.422 127.157L472 132.944V148.686L469.84 150.847L465.246 149.316L450.108 134.458C448.843 133.217 447.202 132.431 445.442 132.223C443.682 132.016 441.904 132.398 440.385 133.311C438.866 134.224 437.693 135.615 437.05 137.266C436.407 138.918 436.331 140.736 436.833 142.435L451.653 199.599C454.184 209.804 453.322 220.555 449.198 230.227L441.93 247.188C439.451 252.964 436.613 258.58 433.43 264H423.79C420.522 264 417.296 263.255 414.359 261.822C411.421 260.389 408.849 258.305 406.838 255.729C404.826 253.153 403.428 250.152 402.75 246.955C402.072 243.758 402.132 240.448 402.925 237.277H402.927ZM358.86 276.116C359.606 274.872 360 273.45 360 272V237.556C360.001 233.816 361.35 230.202 363.8 227.377C366.251 224.552 369.637 222.705 373.339 222.175L390.839 219.675L387.409 233.395C386.05 238.826 385.924 244.492 387.041 249.977C388.158 255.463 390.49 260.628 393.864 265.095C397.239 269.561 401.572 273.215 406.544 275.788C411.516 278.36 417.001 279.787 422.596 279.962C421.317 281.609 420.016 283.236 418.674 284.821L357.056 357.644L355.611 349C353.296 334.953 347.186 321.805 337.94 310.979L358.86 276.116ZM196.205 235.077C198.438 231.951 201.325 229.349 204.665 227.451C208.006 225.554 211.719 224.407 215.548 224.09C219.377 223.773 223.228 224.294 226.835 225.617C230.442 226.939 233.718 229.031 236.434 231.748L322.343 317.657C331.59 326.87 337.706 338.756 339.828 351.635L342.557 368H300L222.656 259.562C221.908 258.439 220.887 257.524 219.69 256.902C218.493 256.28 217.158 255.97 215.809 256.002C214.461 256.034 213.142 256.407 211.976 257.086C210.81 257.765 209.834 258.727 209.14 259.884L185.646 299.04L144 340.686L130.449 327.135L196.205 235.077ZM280 368H147.1L150.993 356.321L197.657 309.657C198.118 309.194 198.521 308.676 198.857 308.116L216.352 278.956L280 368ZM72 358.246L97.94 351.761C98.8307 351.539 99.6764 351.165 100.44 350.656L118.982 338.294L134.849 354.161L130.234 368H72V358.246ZM40 384H472C474.122 384 476.157 384.843 477.657 386.343C479.157 387.843 480 389.878 480 392C480 394.122 479.157 396.157 477.657 397.657C476.157 399.157 474.122 400 472 400H40C37.8783 400 35.8434 399.157 34.3431 397.657C32.8429 396.157 32 394.122 32 392C32 389.878 32.8429 387.843 34.3431 386.343C35.8434 384.843 37.8783 384 40 384Z" fill="#7221A1"/>
<path d="M433.926 329.46L425.926 338.794C425.232 339.59 424.703 340.516 424.369 341.518C424.035 342.519 423.903 343.577 423.98 344.631C424.056 345.684 424.341 346.711 424.817 347.654C425.293 348.597 425.95 349.436 426.752 350.123C427.554 350.81 428.484 351.332 429.488 351.658C430.493 351.984 431.552 352.108 432.604 352.023C433.657 351.937 434.682 351.645 435.621 351.161C436.559 350.678 437.393 350.013 438.074 349.206L446.074 339.873C446.758 339.075 447.278 338.151 447.604 337.152C447.931 336.154 448.057 335.101 447.977 334.053C447.896 333.006 447.61 331.984 447.135 331.047C446.659 330.11 446.004 329.276 445.207 328.593C444.409 327.909 443.484 327.389 442.486 327.062C441.487 326.736 440.434 326.61 439.387 326.69C438.339 326.771 437.318 327.057 436.381 327.532C435.444 328.007 434.61 328.662 433.926 329.46V329.46Z" fill="#7221A1"/>
<path d="M473.926 282.793L449.926 310.793C448.545 312.404 447.861 314.497 448.023 316.613C448.186 318.729 449.182 320.693 450.793 322.074C452.404 323.455 454.497 324.139 456.613 323.977C458.729 323.814 460.693 322.818 462.074 321.207L486.074 293.207C487.455 291.596 488.139 289.502 487.977 287.387C487.814 285.271 486.818 283.307 485.207 281.926C483.596 280.545 481.503 279.86 479.387 280.023C477.271 280.186 475.307 281.182 473.926 282.793V282.793Z" fill="#7221A1"/>
</svg>
