<svg width="512" height="512" viewBox="0 0 512 512" fill="none" xmlns="http://www.w3.org/2000/svg">
<path d="M267.6 496.976C272.752 455.056 270.456 412.968 260.784 371.88C252.592 337.056 249.944 301.32 252.912 265.664L256.328 224.664L240.392 223.336L236.976 264.336C233.856 301.672 236.632 339.088 245.208 375.552C254.448 414.784 256.64 454.984 251.72 495.024L267.6 496.976Z" fill="#7221A1"/>
<path d="M184.88 112.048C169.272 110.312 157.592 104.072 149.168 92.9521C128.272 65.3761 135.808 17.7841 135.888 17.3041L120.104 14.6881C119.736 16.9041 111.328 69.4481 136.376 102.56C146.056 115.36 159.296 123.496 175.808 126.816C173.224 148.888 158.408 167.736 137.072 175.168L129.576 170.112L117.608 126.68L102.184 130.928L114.936 177.208C115.44 179.048 116.592 180.648 118.168 181.712L172.504 218.36C174.632 219.792 175.928 222.168 175.984 224.728C176.056 227.464 174.792 229.912 172.52 231.456C170.24 232.984 167.488 233.256 164.984 232.168L140.68 221.712C137.736 220.456 134.336 221.056 132.016 223.256C129.696 225.448 128.904 228.816 130.008 231.816L161.656 317.952L162.72 321.624C166.704 335.336 161.624 337.8 159.952 338.616C156.592 340.264 150.536 337.088 148.256 333.44C146.656 330.88 145.504 327.008 144.4 323.264C143.856 321.432 143.312 319.632 142.728 317.936L128.904 278.104C128.616 277.272 127.704 274.256 126.768 271.232C125.768 267.968 124.76 264.704 124.448 263.792L109.336 269.04C109.624 269.872 110.536 272.888 111.472 275.912C112.472 279.176 113.48 282.44 113.784 283.344L127.608 323.176C128.112 324.64 128.584 326.216 129.056 327.816C130.112 331.36 131.288 335.256 133.048 338.888L138.744 354.728C139.36 356.96 138.48 359.328 136.56 360.616C134.76 361.824 133.016 361.592 132.112 361.328C131.224 361.08 129.592 360.368 128.976 359.144L99.808 275.352L84.696 280.616L108.472 348.816L105.704 349.848C103.824 350.352 101.8 349.808 100.448 348.44L79.944 295.352L65.04 301.136L83.008 347.64C78.192 348.184 75.328 345.968 74.024 344.488L52.04 264.392C51.376 261.944 50.632 259.456 49.888 256.92C45.424 241.824 40.808 226.216 48.92 214.184C49.752 212.952 50.64 211.776 51.52 210.608C54.184 207.096 57.208 203.104 58.856 197.792C60.728 191.728 61.08 185.512 61.184 180.776C61.416 169.888 60.12 158.96 57.424 149.176C57.304 148.744 57.16 148.336 56.968 147.928L31.248 92.6241L16.736 99.3761L42.176 154.056C44.344 162.208 45.376 171.312 45.184 180.448C45.104 184.144 44.856 188.912 43.576 193.056C42.76 195.68 40.912 198.128 38.768 200.952C37.696 202.36 36.632 203.776 35.64 205.248C27.792 216.904 27.496 229.664 29.584 241.768C27.352 249.184 24.352 261.928 24.352 270.312V428.968C24.36 446.536 24 495.936 24 495.944L40 496.056C40 496.056 40.36 446.568 40.36 428.968V282.264L58.992 350.184C59.208 350.96 59.536 351.696 59.968 352.376C63.08 357.224 70.632 363.808 81.544 363.808C84.712 363.808 88.176 363.192 91.88 361.888C95.464 364.432 99.744 365.944 104.328 365.944C106.392 365.944 108.504 365.664 110.616 365.072L113.744 363.92L114.176 365.152C116.8 370.84 121.768 375.064 127.8 376.752C129.704 377.288 131.64 377.552 133.584 377.552C137.768 377.552 141.92 376.32 145.48 373.928C151.792 369.688 155.216 362.52 154.76 354.84C155.792 354.976 156.832 355.072 157.872 355.072C160.968 355.072 164.048 354.44 166.96 353.024C174.016 349.584 184.832 340.368 178.088 317.184L151.44 243.776L158.672 246.888C166.176 250.096 174.712 249.312 181.496 244.72C188.272 240.144 192.192 232.528 192 224.368C191.824 216.632 187.888 209.44 181.48 205.112L152.8 185.776C174.432 174.32 189.08 152.888 191.832 128.392C264.928 128.016 339.264 25.2001 342.504 20.6481L329.488 11.3521C328.72 12.4321 251.624 119.632 184.88 112.048V112.048Z" fill="#7221A1"/>
<path d="M352.904 142.952C362.568 142.952 372.008 139.248 378.616 132.12C383.856 126.464 387.128 119.416 388.096 111.736L399.936 16.984L384.064 15L372.224 109.752C371.68 114.088 369.832 118.064 366.888 121.248C360.632 128 349.456 128.944 340.904 123.416L300.344 97.272L291.672 110.728L312.536 124.168C314.08 151.984 330.936 176.408 356.128 187.8L332.68 202.056C326.08 206.072 321.816 213.072 321.264 220.776C320.68 228.944 324.248 236.728 330.8 241.616C337.352 246.512 345.856 247.712 353.496 244.84L360.864 242.072L332.016 310.536L330.784 314.144C322.968 336.984 333.336 346.704 340.216 350.472C343.384 352.2 346.816 352.968 350.264 352.968C350.92 352.968 351.576 352.888 352.232 352.832C351.4 360.288 354.496 367.76 360.704 372.368C364.424 375.128 368.88 376.56 373.416 376.56C375.024 376.56 376.64 376.384 378.24 376.016C384.336 374.608 389.488 370.616 392.712 364.36L392.912 363.864L396.576 365.408C398.736 366.12 400.96 366.456 403.16 366.456C407.312 366.456 411.328 365.136 414.808 362.888C418.936 364.568 422.792 365.312 426.304 365.312C436.552 365.312 443.936 359.4 447.136 354.872C447.6 354.216 447.968 353.496 448.216 352.728L464.384 303.08V496H480.384V270.312C480.384 270.192 480.344 261.008 480.192 255.008C484.672 240.528 487.56 224.2 478.36 209.056C477.44 207.536 476.44 206.072 475.44 204.608C473.432 201.68 471.704 199.152 471.008 196.48C469.912 192.288 469.888 187.512 469.992 183.808C470.224 174.432 471.768 165.152 474.36 157.224L495.544 98.72L480.496 93.264L459.232 152.008C456.08 161.632 454.272 172.488 453.992 183.384C453.864 188.136 453.928 194.368 455.52 200.504C456.912 205.88 459.736 210.008 462.232 213.656C463.064 214.864 463.904 216.08 464.68 217.352C470.912 227.616 468.456 239.464 464.368 252.048L464.056 252.08C464.072 252.24 464.088 252.576 464.104 252.88C463.336 255.224 462.528 257.584 461.704 259.976C460.84 262.48 459.976 264.944 459.192 267.36L433.48 346.304C432.056 347.76 429.088 349.808 424.36 349.056L444.488 303.456L429.848 296.984L406.864 349.056C405.456 350.36 403.464 350.872 402.192 350.448L398.872 349.04L425.784 282.048L410.944 276.08L378.168 357.68C377.176 359.584 375.512 360.216 374.616 360.432C373.712 360.616 371.928 360.792 370.208 359.512C368.344 358.136 367.576 355.72 368.088 354.08L374.952 337.432L374.84 337.384C376.624 333.984 378.072 330.424 379.232 327.112C379.784 325.528 380.328 323.968 380.904 322.536L396.584 283.392C396.936 282.504 398.088 279.288 399.24 276.08C400.312 273.104 401.376 270.12 401.704 269.304L386.848 263.368C386.496 264.256 385.344 267.472 384.192 270.68C383.12 273.656 382.056 276.64 381.728 277.448L366.048 316.592C365.384 318.248 364.768 320.024 364.136 321.832C362.848 325.52 361.512 329.336 359.792 331.816C357.352 335.328 351.136 338.184 347.872 336.44C346.248 335.552 341.288 332.84 345.912 319.32L382.816 231.16C384.048 228.216 383.424 224.808 381.208 222.512C379 220.208 375.616 219.432 372.632 220.56L347.864 229.856C345.296 230.832 342.568 230.432 340.36 228.792C338.168 227.152 337.016 224.64 337.2 221.912C337.384 219.368 338.8 217.048 340.984 215.72L396.984 181.664C398.616 180.672 399.832 179.128 400.432 177.312L415.344 131.688L400.144 126.72L386.144 169.536L373.536 177.208L368.432 175.512C349.664 169.288 335.848 154.224 330.68 135.872L332.224 136.864C338.568 140.952 345.8 142.952 352.904 142.952V142.952Z" fill="#7221A1"/>
<path d="M104 408H120V496H104V408Z" fill="#7221A1"/>
<path d="M392 408H408V496H392V408Z" fill="#7221A1"/>
</svg>
