<svg width="512" height="512" viewBox="0 0 512 512" fill="none" xmlns="http://www.w3.org/2000/svg">
<path d="M511.911 332.866C512.043 308.665 495.059 287.742 471.349 282.893L445.195 240.924C431.375 218.708 406.175 204.912 379.435 204.912H337.159C337.478 190.61 335.792 176.334 332.147 162.5C347.527 155.197 354.114 136.839 346.888 121.423L340.508 107.895C334.035 94.1893 318.568 87.2127 304.01 91.4319C296.475 73.8629 283.763 59.0086 267.568 48.8502C256.661 41.9023 244.409 37.3366 231.614 35.4546C230.364 35.2413 228.906 35.2147 227.582 35.0675C218.746 8.29334 189.879 -6.2496 163.104 2.58556C136.329 11.4207 121.787 40.288 130.622 67.0633C132.083 71.4894 134.143 75.6958 136.745 79.5632C129.741 90.8156 125.208 103.428 123.446 116.563C122.871 120.709 122.585 124.89 122.593 129.076C122.563 143.95 126.101 158.615 132.909 171.84C121.907 179.428 117.008 193.215 120.754 206.045C98.3405 209.712 78.3926 222.848 66.9845 242.259L39.6996 288.133C37.4807 288.802 35.2436 289.413 33.0449 290.149C7.83179 298.52 -5.8208 325.745 2.54946 350.957C5.2578 359.114 10.1019 366.397 16.5795 372.048C6.37953 378.183 0.129018 389.205 0.0991622 401.108V435.229C0.101295 444.946 4.23951 454.203 11.4785 460.686L22.8407 447.958C19.2239 444.716 17.1585 440.087 17.1596 435.229V401.108C17.1724 391.691 24.8026 384.061 34.22 384.048H477.791C487.208 384.061 494.838 391.691 494.851 401.108V435.229C494.838 444.646 487.208 452.277 477.791 452.289H170.703V469.35H477.791C496.628 469.331 511.892 454.066 511.911 435.229V401.108C511.87 388.819 505.201 377.508 494.468 371.523C505.577 361.748 511.933 347.661 511.911 332.866V332.866ZM430.717 249.946L451.056 282.59L361.402 290.362L329.365 266.33C327.889 265.221 326.093 264.622 324.247 264.624H320.382C327.566 254.204 332.491 242.396 334.844 229.96C335.333 227.386 335.744 224.708 336.085 221.972H379.435C400.328 221.973 419.978 232.686 430.717 249.946V249.946ZM325.064 115.145L331.461 128.715C334.302 134.81 332.343 142.064 326.822 145.902C326.221 144.351 325.756 142.703 325.105 141.202L310.8 107.348C316.745 106.569 322.511 109.721 325.064 115.145V115.145ZM288.677 98.8095L309.419 147.908C311.177 151.975 312.698 156.141 313.976 160.384C319.313 177.325 321.302 195.143 319.832 212.844C319.524 217.537 318.937 222.207 318.074 226.831C315.911 238.516 310.97 249.509 303.668 258.884C302.014 260.939 300.202 262.862 298.249 264.636L222.442 265.382C205.251 254.703 190.641 240.348 179.66 223.347C177.236 219.69 175.012 215.906 172.996 212.01L148.405 164.785C142.706 153.923 139.715 141.847 139.687 129.58L145.864 131.806L151.646 115.762L141.643 112.156C142.814 106.889 144.537 101.76 146.785 96.855L165.978 109.65L175.442 95.456L155.482 82.1511C161.286 74.4493 168.49 67.9099 176.715 62.876L188.747 88.4666L204.191 81.2021L192.154 55.5997C200.927 52.5864 210.18 51.212 219.45 51.5479L213.613 74.8929L230.158 79.0258L236.461 53.8116C242.032 55.2308 247.422 57.2855 252.524 59.9352L248.884 70.0456L264.928 75.827L267.138 69.6884C276.531 77.5458 283.914 87.5283 288.677 98.8095V98.8095ZM140.854 187.212L157.875 219.903C158.696 221.457 159.474 222.87 160.226 224.217C153.749 225.992 146.94 222.815 144.138 216.713L137.749 203.278C135.225 197.812 136.475 191.344 140.854 187.212V187.212ZM179.233 17.2479C191.583 17.2756 202.952 23.9804 208.952 34.7743C185.588 36.7266 163.802 47.3563 147.885 64.5692C140.465 47.3883 148.377 27.4447 165.557 20.0245C169.875 18.1596 174.532 17.2149 179.233 17.2479V17.2479ZM81.6693 250.946C91.2497 234.632 108.661 224.061 127.915 222.331L128.694 223.972C135.845 239.39 154.14 246.094 169.559 238.944C169.638 238.907 169.717 238.87 169.795 238.833L169.849 238.808C177.602 249.643 186.724 259.429 196.988 267.923L84.2017 279.202C77.08 279.912 69.9978 281.034 62.9593 282.394L81.6693 250.946ZM38.4435 306.325C53.8395 301.199 69.7558 297.796 85.9013 296.179L230.415 281.684H321.406L336.776 293.213L237.737 307.35C237.143 307.435 236.559 307.583 235.996 307.791L75.3462 366.978H48.282C31.0926 366.978 17.1574 353.042 17.1585 335.852C17.1596 322.454 25.7335 310.56 38.4435 306.325V306.325ZM461.583 366.986H444.044L248.222 349.618C247.038 349.5 245.844 349.647 244.723 350.044L194.886 366.986H124.675L241.044 324.11L351.506 308.341L459.877 298.745H461.494C462.693 298.74 463.893 298.81 465.084 298.953C482.056 300.819 494.851 315.397 494.851 332.866C494.851 351.683 479.923 366.986 461.583 366.986V366.986Z" fill="#7221A1"/>
<path d="M176.36 191.284L187.056 204.58C196.298 197.163 207.171 192.049 218.777 189.659L215.365 172.949C201.094 175.882 187.725 182.168 176.36 191.284V191.284Z" fill="#7221A1"/>
<path d="M260.854 218.383C254.789 221.241 248.197 222.809 241.494 222.989L240.094 223.022L240.494 240.083L241.886 240.05C256.692 239.656 270.931 234.277 282.298 224.781L271.352 211.702C268.156 214.372 264.626 216.617 260.854 218.383Z" fill="#7221A1"/>
<path d="M212.321 166.968L217.152 150.607C193.045 143.501 168.804 154.939 159.516 177.831L175.327 184.245C181.342 169.417 196.536 162.328 212.321 166.968Z" fill="#7221A1"/>
<path d="M233.933 142.719L249.608 149.436C256.08 134.334 271.233 127.169 286.519 131.968L291.651 115.707C268.101 108.248 243.826 119.619 233.933 142.719V142.719Z" fill="#7221A1"/>
<path d="M223.799 162.708L239.244 155.438L261.513 202.747L246.068 210.017L223.799 162.708Z" fill="#7221A1"/>
<path d="M263.411 169.825C272.655 162.41 283.53 157.296 295.138 154.904L291.705 138.193C277.439 141.129 264.074 147.413 252.712 156.528L263.411 169.825Z" fill="#7221A1"/>
<path d="M149.793 436.056C145.939 429.861 139.757 425.476 132.636 423.887C128.451 422.918 124.134 422.647 119.86 423.084C119.764 422.534 119.655 421.985 119.521 421.436C117.786 414.423 113.243 408.434 106.956 404.875C94.3089 397.55 77.8168 401.334 70.2025 413.312C68.0913 416.627 66.5601 420.278 65.6751 424.107C57.9435 422.803 50.0243 424.883 43.9316 429.819L43.6629 430.032C38.2079 434.382 34.8107 440.807 34.2882 447.765C33.7764 454.644 36.1521 461.426 40.8469 466.481L41.7532 467.475C44.3293 470.284 47.333 472.671 50.6534 474.544C47.2808 481.315 47.1475 489.246 50.2898 496.126C56.5435 509.24 71.8339 515.333 85.3937 510.117C89.2622 508.622 92.8523 506.491 96.016 503.81C101.235 509.052 108.327 511.999 115.724 512C116.372 512 117.024 511.978 117.68 511.932C124.91 511.483 131.646 508.108 136.333 502.584C140.781 497.369 142.912 490.565 142.234 483.744C141.846 479.782 140.79 475.912 139.112 472.302C146.063 469.01 151.151 462.751 152.954 455.274C154.524 448.703 153.384 441.777 149.793 436.056V436.056ZM128.799 440.512C131.481 441.087 133.821 442.718 135.289 445.036C136.475 446.895 136.863 449.154 136.365 451.302C135.442 455.162 131.662 457.835 127.331 457.948C121.07 453.334 113.565 450.71 105.793 450.417C109.737 442.635 119.231 438.298 128.799 440.512ZM84.6015 422.463C87.3269 418.176 93.6489 416.884 98.4055 419.638C100.659 420.883 102.302 422.998 102.949 425.489C103.229 426.635 103.252 427.829 103.014 428.985C96.6035 433.087 91.6901 439.15 89.0031 446.271C85.7254 443.657 83.3977 440.04 82.3773 435.975C81.2299 431.357 82.035 426.47 84.6015 422.463ZM51.3017 449.03C51.4947 446.76 52.625 444.674 54.4206 443.272L54.6903 443.059C58.064 440.389 62.7343 440.073 66.4375 442.263C68.7055 449.44 73.1561 455.731 79.1699 460.258C70.8583 464.482 60.7585 462.736 54.3449 455.969L53.4375 454.977C51.9298 453.377 51.1556 451.223 51.3017 449.03V449.03ZM79.2094 494.222C74.1083 496.204 67.9857 493.861 65.8351 489.104C64.2922 485.767 65.1996 481.809 68.0412 479.476C68.5796 479.498 69.117 479.515 69.6555 479.515C77.1696 479.542 84.5226 477.343 90.7891 473.198C91.6656 476.748 91.3916 480.484 90.0075 483.869C87.9997 488.667 84.0886 492.417 79.2094 494.222V494.222ZM123.305 491.569C121.58 493.565 119.116 494.772 116.481 494.913C112.211 495.236 108.169 492.94 106.26 489.106C108.801 482.201 109.044 474.659 106.953 467.604C116.509 468.749 124.346 476.053 125.251 485.39C125.471 487.628 124.768 489.86 123.305 491.569Z" fill="#7221A1"/>
</svg>
