<svg width="512" height="512" viewBox="0 0 512 512" fill="none" xmlns="http://www.w3.org/2000/svg">
<path d="M512 355.738C512 350.496 509.039 346.019 504.453 344.34C500.25 342.797 495.605 344.074 492.621 347.602L483.801 358.016L462.16 270.988C460.68 264.992 456.02 260.394 449.992 258.984L388.754 244.727L422.324 193.711L437.922 173.711C440.203 170.789 440.004 166.637 437.453 163.941L435.242 161.605L440.695 156.629C444.016 153.598 445.937 149.457 446.105 144.961C446.273 140.465 444.664 136.184 441.574 132.91L437.223 128.301C431.992 122.781 423.695 121.5 417.051 125.184L406.371 131.113L406.09 130.816C403.199 127.762 398.789 126.746 394.852 128.215C390.914 129.691 388.258 133.355 388.082 137.559L387.926 141.352L364.984 154.09L341.246 146.906C341.242 146.906 341.242 146.906 341.242 146.902L300.734 134.402C300.672 134.383 300.605 134.363 300.539 134.344C290.508 131.547 279.648 133.375 271.102 139.219C270.27 134.09 268.137 129.23 264.805 125.062L249.168 105.488C238.637 92.3046 219.344 90.1484 206.16 100.676L201.98 104.016C195.594 109.117 191.578 116.398 190.668 124.523C189.762 132.648 192.07 140.637 197.172 147.023L212.809 166.598C215.988 170.578 219.973 173.543 224.34 175.469C216.441 183.281 212.453 194.473 213.816 205.648L229.508 333.758L226.277 337.242L207.32 334.82C203.207 334.293 199.453 337.199 198.93 341.309C198.406 345.418 201.309 349.176 205.418 349.699L221.652 351.773V376.91L175.105 372.145C175.102 372.145 175.098 372.145 175.094 372.145C175.09 372.145 175.086 372.141 175.078 372.141L136.461 368.328C132.328 367.926 128.664 370.934 128.258 375.055C127.852 379.176 130.863 382.848 134.984 383.258L166.84 386.402V403.82H135.723C135.695 403.82 135.672 403.824 135.645 403.824H108.902V401.035C108.902 390.004 102.695 380.398 93.5898 375.52C97.3477 371.031 99.9102 365.516 100.785 359.457H104.426C110.16 359.457 115.754 357.547 120.605 353.93L133.73 344.098C136.391 342.113 139.352 341.262 142.285 341.633L173.391 345.609C177.5 346.137 181.258 343.227 181.781 339.121C182.305 335.012 179.398 331.254 175.289 330.73L144.18 326.754C137.402 325.894 130.508 327.785 124.746 332.086L111.625 341.914C109.395 343.578 106.902 344.457 104.422 344.457H100.785C98.5313 328.844 85.0664 316.809 68.8398 316.809H41.957C24.1562 316.809 9.67578 331.289 9.67578 349.09V354.824C9.67578 362.383 12.293 369.34 16.6602 374.844C6.82812 379.469 0 389.469 0 401.035V406.875C0 413.461 5.35937 418.82 11.9453 418.82L480.469 418.824H504.5C508.57 418.824 512 415.395 512 411.324V355.738ZM497 365.637V390.289L489.566 381.187L488.266 375.949L497 365.637ZM322.488 403.824L320.41 398.367C317.645 391.09 311.625 386.129 304.703 385.418L296.734 384.602L311.578 362.035L435.426 376.02L439.09 385.934L438.852 403.824H322.488ZM181.84 387.914L303.176 400.34C304.18 400.441 305.562 401.52 306.391 403.695L306.438 403.82H181.84V387.914ZM320.824 347.98L344.848 311.461L339.625 350.105L320.824 347.98ZM454.008 392.133H479.137L488.684 403.82H453.852L454.008 392.133ZM446.586 273.594C447.09 273.711 447.477 274.09 447.602 274.594L472.641 375.301C472.672 375.422 472.703 375.539 472.738 375.652L473.102 377.129H451.828L447.891 366.48C447.848 366.363 447.805 366.25 447.754 366.137L425.734 306.625C423.633 300.937 418.594 296.902 412.594 296.09L390.062 293.039C385.953 292.484 382.18 295.359 381.625 299.465C381.07 303.57 383.945 307.348 388.051 307.902L410.578 310.953C411.074 311.019 411.492 311.355 411.668 311.832L429.586 360.262L354.535 351.789L363.898 282.492L379.961 258.082L446.586 273.594ZM403.477 149.875L418.977 166.246C418.984 166.258 418.992 166.266 419 166.277C419.02 166.297 419.039 166.312 419.059 166.336L422.129 169.574L415.59 177.957L401.996 164.074L402.562 150.383L403.477 149.875ZM424.324 138.301C424.984 137.934 425.809 138.066 426.32 138.605L430.664 143.207C431.059 143.625 431.129 144.086 431.113 144.402C431.102 144.715 431 145.168 430.582 145.551L424.93 150.711L417.016 142.355L424.324 138.301ZM369.488 168.746L387.195 158.914L386.988 163.937L367.191 185.285L338.746 176.668L341.375 169.531L343.664 163.312L363.676 169.367C365.617 169.953 367.715 169.73 369.488 168.746V168.746ZM342.5 211.914L324.105 187.922L326.812 188.723L355.848 197.519L342.5 211.914ZM296.418 148.769L329.301 158.918L325.191 170.074L324.355 172.348L314.996 169.574C314.715 169.492 314.43 169.426 314.141 169.375C309.812 168.629 305.551 170.574 303.277 174.336C301.004 178.098 301.266 182.785 303.938 186.269L332.152 223.07L290.355 268.141L263.945 227.066C261.449 223.195 256.66 221.531 252.305 223.019C247.949 224.504 245.176 228.742 245.562 233.328L246.855 248.684L234.605 252.027L228.703 203.832C227.801 196.414 230.914 188.977 236.828 184.43L247.785 176.004C250.609 174.906 253.324 173.398 255.816 171.41L259.992 168.07C262.086 166.398 263.922 164.488 265.477 162.398L278.648 152.262C283.668 148.398 290.305 147.094 296.418 148.769ZM265.777 294.644L262.34 253.812C262.34 253.801 262.336 253.789 262.336 253.777L262.191 252.07L279.824 279.5L265.777 294.644ZM242.855 319.363L236.449 267.07L248.137 263.883L251.98 309.527L242.855 319.363ZM208.891 137.664C206.289 134.406 205.109 130.332 205.574 126.191C206.039 122.051 208.086 118.336 211.344 115.734L215.523 112.398C222.242 107.031 232.078 108.129 237.445 114.848L253.086 134.422C255.687 137.68 256.863 141.754 256.398 145.894C256.152 148.094 255.449 150.168 254.363 152.023L240.617 162.59C234.848 164.07 228.48 162.184 224.527 157.238L208.891 137.664ZM236.652 348.113L236.738 348.019L251.469 332.137L265.23 317.301C265.242 317.285 265.258 317.269 265.27 317.25L394.516 177.875L406.637 190.258L350.422 275.684C350.395 275.727 350.367 275.769 350.34 275.812C350.328 275.832 350.316 275.852 350.305 275.871C350.277 275.91 350.254 275.949 350.23 275.988L279.91 382.879L236.652 378.445V348.113ZM24.6758 349.09C24.6758 339.559 32.4258 331.809 41.957 331.809H68.8398C78.3672 331.809 86.1211 339.559 86.1211 349.09V354.824C86.1211 364.355 78.3672 372.105 68.8398 372.105H41.957C32.4258 372.105 24.6758 364.355 24.6758 354.824V349.09ZM15 401.035C15 393.355 21.2461 387.105 28.9297 387.105H79.9727C87.6523 387.105 93.9023 393.355 93.9023 401.035V403.82H15V401.035Z" fill="#7221A1"/>
</svg>
