<svg width="512" height="512" viewBox="0 0 512 512" fill="none" xmlns="http://www.w3.org/2000/svg">
<g clip-path="url(#clip0)">
<path d="M504 491.028H431.675C428.774 479.211 419.575 469.675 407.342 466.617L389.949 462.266L411.934 355.644C416.153 335.157 404.527 314.296 384.402 307.34C335.214 290.27 352.038 297.828 306.791 287.494C322.536 277.924 344.225 264.229 350.993 257.46C358.921 249.522 383.048 225.362 383.048 202.255C383.048 195.741 381.08 188.563 377.192 180.855L503.493 54.5532C508.979 49.0685 512 41.7749 512 34.0174C512 8.30687 480.667 -4.76336 462.423 13.4816C459.298 16.6054 459.298 21.6701 462.423 24.7939C465.547 27.9177 470.611 27.9177 473.735 24.7939C481.933 16.5984 496.001 22.473 496.001 34.0164C496.001 37.5002 494.644 40.775 492.181 43.2388L344.988 190.433C339.933 195.487 343.582 204.089 350.644 204.089C354.983 204.089 356.242 201.806 365.069 192.979C366.361 196.411 367.048 199.547 367.048 202.255C367.048 213.195 357.838 227.965 339.633 246.195C333.155 252.673 303.732 270.891 284.071 282.445L257.008 279.062C252.622 278.509 248.626 281.623 248.078 286.008C247.53 290.391 250.64 294.389 255.024 294.937L284.32 298.6C352.356 315.283 325.585 304.042 379.291 322.502C391.599 326.785 398.897 339.645 396.268 352.414L386.094 401.753H359.915L364.139 364.732C364.647 360.276 361.388 356.264 356.913 355.858C261.44 347.197 270.39 357.712 237.629 346.308C235.481 345.583 232.221 344.315 229.936 343.132C210.379 333.009 206.173 303.693 212.353 287.211C219.928 281.849 227.476 275.644 234.791 268.756C238.008 265.727 238.16 260.664 235.131 257.447C232.102 254.231 227.041 254.079 223.823 257.107C215.573 264.875 205.262 272.857 204.609 273.008C202.595 273.477 202.035 274.138 194.076 279.367C174.186 292.436 178.044 289.896 74.8946 376.598L12.4202 418.28C1.48289 425.576 -2.83786 439.236 1.91286 451.496C14.8631 484.914 14.8441 485.92 18.4499 491.028H8.02951C3.61177 491.028 0.029975 494.609 0.029975 499.027C0.029975 503.445 3.61177 507.027 8.02951 507.027H504C508.418 507.027 512 503.445 512 499.027C512 494.609 508.418 491.028 504 491.028ZM193.777 298.829C192.492 319.06 200.166 341.722 216.888 353.812C187.141 367.653 147.225 383.536 98.2632 408.787L89.2207 385.456C168.476 318.826 181.722 307.274 193.777 298.829V298.829ZM21.2997 431.589L75.8395 395.201L84.204 416.784L47.0742 440.431C44.3504 442.165 42.9365 445.368 43.4904 448.549L50.871 490.964C41.5865 491.635 32.5361 486.244 29.0013 477.122L16.831 445.715C14.8101 440.501 16.648 434.692 21.2997 431.589V431.589ZM60.1664 451.061C96.5403 427.896 101.982 422.061 192.686 382.172C209.04 374.98 223.307 368.696 235.706 362.515C268.551 372.946 266.209 364.141 347.311 371.073C335.668 473.11 338.568 453.254 333.772 472.436C332.189 478.766 332.861 485.283 335.576 491.027H67.121L60.1664 451.061ZM360.779 491.028C353.081 491.028 347.423 483.797 349.293 476.317C354.421 455.806 352.191 469.422 358.087 417.753H382.793L372.731 466.55C371.865 470.75 374.464 474.886 378.625 475.925L403.461 482.138C408.448 483.385 412.469 486.697 414.708 491.028H360.779Z" fill="#7221A1"/>
<path d="M277.975 85.7648C279.11 101.485 285.554 116.049 296.279 127.616C289.111 156.994 278.043 184.05 263.332 208.088C261.025 211.856 262.21 216.78 265.978 219.087C269.769 221.408 274.685 220.185 276.978 216.44C291.266 193.095 302.305 167.115 309.869 139.063C313.877 141.664 318.121 143.846 322.521 145.583L326.981 148.925L315.232 160.674C310.177 165.728 313.826 174.331 320.888 174.331C322.935 174.331 324.983 173.55 326.545 171.988C409.669 88.8636 261.526 237.007 429.1 69.4328C444.18 54.3527 452.486 34.3028 452.486 12.9761C452.486 8.55835 448.904 4.97656 444.486 4.97656C440.068 4.97656 436.486 8.55835 436.486 12.9761C436.486 30.0291 429.846 46.0622 417.788 58.1204L383.05 92.8584C383.05 74.2805 384.417 63.6801 376.302 49.391C362.549 25.1534 331.412 16.2279 306.278 28.8732C294.242 8.30137 262.905 11.1122 254.954 33.6209L249.588 48.863C242.991 67.5299 257.767 86.8968 277.975 85.7648V85.7648ZM359.82 53.4257C352.3 63.9131 340.155 70.0668 327.154 70.2427C315.478 70.4057 316.264 86.2608 326.581 86.2608C341.583 86.2608 356.091 80.4081 366.734 69.9088C367.16 73.0246 367.049 71.0427 367.049 108.855L341.704 134.2C331.272 132.778 321.832 128.57 314.222 122.508L320.954 105.8C322.759 101.32 320.214 96.1362 315.303 95.0173C311.538 94.1573 307.6 96.1242 306.112 99.82L302.261 109.379C296.764 100.901 293.772 91.0985 293.772 80.7391C293.772 79.7212 293.659 79.9962 294.337 79.4462C298.597 75.9954 301.518 71.5527 303.1 67.0919C308.462 51.8738 309.528 49.5929 309.928 45.1922C325.966 34.7478 347.99 38.0326 359.82 53.4257V53.4257ZM264.675 54.1827L270.04 38.9396C271.785 34.0019 276.572 30.901 281.707 30.901C290.105 30.901 296.1 38.8186 293.378 46.5371C288.165 61.3343 287.821 65.178 282.703 68.1079C272.478 73.8765 261.098 64.3121 264.675 54.1827V54.1827Z" fill="#7221A1"/>
<path d="M246.041 245.633C249.476 248.395 254.541 247.826 257.315 244.375C257.722 243.869 258.129 243.362 258.536 242.846C261.272 239.377 260.678 234.347 257.209 231.612C253.74 228.875 248.709 229.469 245.975 232.939C245.599 233.416 245.223 233.883 244.79 234.42C242.022 237.864 242.598 242.864 246.041 245.633V245.633Z" fill="#7221A1"/>
</g>
<defs>
<clipPath id="clip0">
<rect width="512" height="512" fill="white"/>
</clipPath>
</defs>
</svg>
