<svg width="512" height="512" viewBox="0 0 512 512" fill="none" xmlns="http://www.w3.org/2000/svg">
<path d="M204.8 315.733C204.8 385.118 249.745 443.733 302.933 443.733C356.122 443.733 401.067 385.118 401.067 315.733C401.067 246.349 356.122 187.733 302.933 187.733C249.745 187.733 204.8 246.349 204.8 315.733ZM384 315.733C384 375.868 346.872 426.667 302.933 426.667C258.995 426.667 221.867 375.868 221.867 315.733C221.867 255.599 258.995 204.8 302.933 204.8C346.872 204.8 384 255.599 384 315.733Z" fill="#7221A1"/>
<path d="M238.933 315.733C238.933 371.046 272.657 409.6 302.933 409.6C333.21 409.6 366.933 371.046 366.933 315.733C366.933 260.42 333.21 221.867 302.933 221.867C272.657 221.867 238.933 260.42 238.933 315.733ZM349.867 315.733C349.867 358.98 324.634 392.533 302.933 392.533C281.233 392.533 256 358.98 256 315.733C256 272.486 281.233 238.933 302.933 238.933C324.634 238.933 349.867 272.486 349.867 315.733Z" fill="#7221A1"/>
<path d="M209.067 512H302.933C394.684 512 469.333 423.953 469.333 315.734C469.333 227.977 420.241 153.498 352.751 128.461C257.468 85.1373 246.69 28.7063 245.658 12.4077C245.365 7.4059 242.14 3.05161 237.44 1.31434C232.721 -0.441953 227.412 0.71129 223.846 4.26688L202.667 25.4295L174.413 2.83328C170.246 -0.505811 164.445 -0.907778 159.858 1.82479C155.27 4.55737 152.861 9.85036 153.813 15.1042C157.406 34.6455 171.247 89.8818 214.4 119.467H209.067C117.316 119.467 42.6667 207.514 42.6667 315.734C42.6667 423.953 117.316 512 209.067 512ZM452.267 315.734C452.267 414.55 385.272 494.934 302.933 494.934C220.595 494.934 153.6 414.55 153.6 315.734C153.6 216.918 220.595 136.534 302.933 136.534C385.272 136.534 452.267 216.918 452.267 315.734ZM173.158 23.6802L194.995 41.1394C200.092 45.2248 207.448 44.8166 212.062 40.1922L229.752 22.5026C233.395 43.2045 247.603 83.0893 301.432 119.467H257.058C201.626 107.981 180.506 52.7447 173.158 23.6802V23.6802ZM209.067 136.534H235.196C177.118 167.194 136.533 235.955 136.533 315.734C136.533 395.512 177.118 464.273 235.196 494.934H209.067C126.729 494.934 59.7334 414.55 59.7334 315.734C59.7334 216.918 126.729 136.534 209.067 136.534V136.534Z" fill="#7221A1"/>
<path d="M105.6 231.253C103.551 230.293 101.204 230.185 99.0752 230.955C96.9468 231.725 95.2113 233.309 94.2507 235.358C72.645 283.857 71.0656 338.925 89.856 388.582C90.8559 391.504 93.3563 393.658 96.394 394.214C99.4317 394.769 102.533 393.64 104.502 391.262C106.472 388.883 107.003 385.627 105.89 382.746C88.6544 337.35 90.022 286.988 109.696 242.594C111.692 238.331 109.86 233.257 105.6 231.253V231.253Z" fill="#7221A1"/>
<path d="M121.89 215.313C124.466 215.317 126.906 214.157 128.529 212.156C132 207.889 135.734 203.842 139.708 200.039C141.995 197.948 142.968 194.782 142.251 191.767C141.535 188.752 139.24 186.363 136.257 185.526C133.273 184.688 130.071 185.533 127.889 187.734C123.405 192.018 119.193 196.578 115.277 201.387C113.205 203.941 112.785 207.457 114.197 210.427C115.609 213.397 118.602 215.291 121.89 215.296V215.313Z" fill="#7221A1"/>
</svg>
