<svg width="512" height="512" viewBox="0 0 512 512" fill="none" xmlns="http://www.w3.org/2000/svg">
<g clip-path="url(#clip0)">
<path d="M420.922 494.323L354.507 387.455C342.056 367.41 347.423 355.326 356.313 335.306C359.135 328.952 362.333 321.75 365.034 313.796C365.069 313.693 365.102 313.59 365.134 313.486C372.954 287.729 359.678 223.696 328.786 190.701C328.326 188.172 327.792 185.634 327.171 183.041C330.657 175.616 337.557 168.155 343.731 161.487C349.439 155.322 354.37 149.998 356.642 144.615C364.026 127.141 359.325 107.189 345.464 97.1749C339.745 93.0439 331.776 90.5059 323.01 92.1839C320.816 81.6279 314.133 73.4089 306.102 68.8369C297.184 63.7779 287.689 62.5939 278.347 65.2829C274.419 55.5379 266.661 48.7109 258.191 45.5509C250.435 42.6419 242.692 42.3239 235.32 44.5159C229.513 33.4319 219.068 27.1999 208.788 25.8619C198.937 24.5939 189.96 26.9189 182.424 32.5949C172.801 8.13386 152.654 -1.57114 135.415 0.203856C119.171 1.84086 106.517 11.0839 98.8289 26.9139C89.8999 45.2059 95.3179 62.3099 100.558 78.8519C105.018 92.9309 109.604 107.479 107.209 125.253C102.439 131.695 98.5029 139.059 95.4889 147.261C85.1119 175.498 87.2989 210.021 101.204 237.366C113.528 261.534 120.363 281.278 124.059 303.385C124.876 308.274 129.112 311.738 133.911 311.737C134.458 311.737 135.014 311.692 135.572 311.599C141.019 310.688 144.696 305.534 143.786 300.086C139.787 276.171 132.15 254.025 119.026 228.289C107.739 206.092 105.868 176.995 114.261 154.159C118.53 142.543 127.457 127.092 145.743 119.446C169.175 109.659 211.538 115.022 248.767 132.491C279.451 146.888 301.338 166.982 307.382 186.287C308.286 189.878 308.986 193.301 309.526 196.735C311.585 217.562 298.912 253.165 288.482 276.702L284.127 247.577C281.515 230.204 265.245 218.193 247.891 220.806C239.454 222.074 232.012 226.579 226.934 233.491C221.892 240.354 219.83 248.725 221.126 257.062C222.292 264.577 223.334 270.867 224.438 277.526C225.031 281.107 225.641 284.791 226.294 288.805C228.235 300.908 226.263 309.906 224.174 319.432C222.994 324.815 221.774 330.383 221.245 336.521C219.109 360.835 227.052 372.414 237.107 387.073C239.177 390.092 241.318 393.213 243.569 396.715L263.828 428.278C254.419 453.156 241.1 471.767 225.13 482.26C211.318 491.334 195.5 494.181 180.59 490.277C155.693 483.757 132.756 457.08 139.287 420.485C141.135 410.145 142.57 400.823 143.675 391.987C144.36 386.507 140.473 381.509 134.992 380.823C129.517 380.135 124.514 384.025 123.829 389.506C122.768 397.992 121.385 406.974 119.598 416.968C115.786 438.326 119.746 459.561 130.749 476.762C141.222 493.135 157.124 504.806 175.524 509.625C181.592 511.214 187.748 511.999 193.898 511.999C208.488 511.999 223.021 507.576 236.112 498.976C252.509 488.203 266.408 470.999 276.913 448.663L313.076 505.003C314.916 507.868 318.087 509.601 321.492 509.601H412.428C416.059 509.601 419.405 507.633 421.169 504.46C422.933 501.287 422.839 497.406 420.922 494.323ZM163.907 85.6159C163.379 88.7699 162.844 91.9779 162.345 95.1669C153.392 96.0909 145.175 98.0099 138.031 100.995C134.317 102.548 130.781 104.376 127.434 106.466C126.22 93.6409 122.687 82.4839 119.624 72.8139C114.36 56.1949 111.633 46.2769 116.81 35.6709C121.509 25.9949 128.058 21.0479 137.444 20.1029C149.523 18.8559 163.376 28.3879 167.13 52.4929C168.253 59.6769 166.044 72.8639 163.907 85.6159ZM219.87 67.0289C219.606 70.9459 215.89 79.1819 212.905 85.7989C211.087 89.8279 209.247 93.9269 207.698 97.9179C199.118 96.2059 190.723 95.1409 182.672 94.7229C182.989 92.7839 183.311 90.8429 183.633 88.9219C185.579 77.3069 187.433 66.2009 187.415 56.9559C188.521 54.9789 189.893 53.0829 191.576 51.2119C195.713 46.6269 200.235 44.9299 206.218 45.6979C213.109 46.5949 220.818 52.7219 219.87 67.0289ZM259.654 88.1449C258.509 91.9049 253.011 99.0899 248.593 104.863C247.5 106.291 246.397 107.739 245.305 109.192C239.303 106.786 233.271 104.673 227.264 102.849C228.444 99.9999 229.796 96.9929 231.135 94.0239C235.344 84.6959 239.32 75.8839 239.826 68.3599C239.924 66.8769 239.956 65.4369 239.94 64.0309C243.529 62.6679 247.133 62.7649 251.185 64.2839C259.758 67.4829 263.081 76.8519 259.654 88.1449ZM287.13 125.954C285.969 127.052 284.798 128.166 283.631 129.284C277.577 125.179 271.013 121.291 263.972 117.679C264.14 117.459 264.309 117.237 264.476 117.018C270.706 108.878 276.59 101.188 278.79 93.9619C279.648 91.1349 280.232 88.4079 280.595 85.7779L280.598 85.7759C286.139 83.1019 290.962 83.2439 296.219 86.2259C302.256 89.6629 307.071 98.2559 300.778 111.144C299.038 114.691 292.436 120.936 287.13 125.954ZM299.601 141.692C300.026 141.29 300.451 140.885 300.874 140.486C308.346 133.418 315.405 126.743 318.744 119.939C319.644 118.096 320.398 116.283 321.043 114.494C324.684 111.904 329.349 110.208 333.75 113.388C339.163 117.299 342.315 127.138 338.217 136.835C337.309 138.986 332.732 143.928 329.056 147.898C325.276 151.98 321.054 156.548 317.21 161.55C312.569 154.683 306.658 148.015 299.601 141.692ZM326.956 489.601L260.398 385.907C257.981 382.148 255.654 378.755 253.601 375.761C244.32 362.231 239.662 355.439 241.171 338.254C241.589 333.395 242.62 328.694 243.711 323.717C245.996 313.298 248.585 301.488 246.039 285.618C245.38 281.563 244.767 277.859 244.17 274.259C243.076 267.652 242.042 261.41 240.891 253.993C240.418 250.951 241.186 247.877 243.053 245.335C244.956 242.744 247.731 241.058 250.865 240.586C257.329 239.617 263.376 244.086 264.349 250.545L272.995 308.374C273.222 309.891 273.794 311.335 274.668 312.594C277.343 316.453 282.303 317.998 286.729 316.356C290.066 315.117 292.812 313.204 300.29 298.494C304.814 289.597 309.622 278.716 313.831 267.858C318.906 254.761 324.398 238.462 327.418 222.831C344.006 252.391 350.458 292.584 346.04 307.532C343.641 314.562 340.792 320.98 338.035 327.188C328.494 348.674 319.481 368.969 337.519 398.01L394.44 489.601H326.956Z" fill="#7221A1"/>
<path d="M213.597 210.877C216.665 210.877 219.695 209.469 221.655 206.809C232.072 192.677 252.06 189.649 266.216 200.059C270.663 203.331 276.923 202.378 280.197 197.928C283.47 193.479 282.515 187.22 278.066 183.947C255.036 167.007 222.508 171.94 205.555 194.943C202.279 199.389 203.226 205.649 207.672 208.926C209.458 210.243 211.536 210.877 213.597 210.877V210.877Z" fill="#7221A1"/>
<path d="M147.097 346.072V346.043C147.097 340.52 142.619 336.057 137.097 336.057C131.575 336.057 127.097 340.548 127.097 346.071C127.097 351.594 131.575 356.071 137.097 356.071C142.619 356.071 147.097 351.595 147.097 346.072Z" fill="#7221A1"/>
</g>
<defs>
<clipPath id="clip0">
<rect width="512" height="512" fill="white"/>
</clipPath>
</defs>
</svg>
